<svg xmlns="http://www.w3.org/2000/svg" aria-hidden="true" style="position:absolute;width:0;height:0;overflow:hidden">
  <defs>
    <symbol id="icon-checkbox-circle" viewBox="0 0 32 32">
      <path d="M16 29.333C8.636 29.333 2.667 23.364 2.667 16S8.636 2.667 16 2.667 29.333 8.636 29.333 16 23.364 29.333 16 29.333zm-1.329-8 9.427-9.428-1.885-1.885-7.541 7.543-3.772-3.772-1.885 1.885 5.657 5.657z"/>
    </symbol>
    <symbol id="icon-FAQ-btn" viewBox="0 0 32 32">
      <path d="M6.4 13.28c0 1.12 2.24 3.36 4.8 4.8 4.64 2.72 4.96 2.72 9.6 0 2.72-1.44 4.8-3.68 4.8-4.8 0-2.72-1.76-2.56-6.08.48-3.2 2.24-3.84 2.24-7.04 0-4.32-3.04-6.08-3.2-6.08-.48z"/>
    </symbol>
    <symbol id="icon-file-copy" viewBox="0 0 32 32">
      <path d="M9.333 8V4a1.335 1.335 0 0 1 1.334-1.334h16A1.335 1.335 0 0 1 28.001 4v18.667a1.334 1.334 0 0 1-1.334 1.334h-4v4c0 .736-.6 1.333-1.343 1.333H5.343a1.346 1.346 0 0 1-.949-.387A1.345 1.345 0 0 1 4 28.001l.004-18.667c0-.736.6-1.333 1.343-1.333h3.987zm-2.662 2.667-.004 16H20v-16H6.671zM12 8h10.667v13.333h2.667v-16H12.001V8z"/>
    </symbol>
    <symbol id="icon-mobile-menu" viewBox="0 0 32 32">
      <path d="M0 1.778h32v3.556H0V1.778zm0 12.444h32v3.556H0v-3.556zm0 12.445h32v3.556H0v-3.556z"/>
    </symbol>
    <symbol id="icon-small-arrow-down" viewBox="0 0 32 32">
      <path d="m16 17.564 6.6-6.6 1.885 1.885L16 21.334l-8.485-8.485L9.4 10.964l6.6 6.6z"/>
    </symbol>
    <symbol id="icon-telegram" viewBox="0 0 32 32">
      <path d="M16 29.333C8.636 29.333 2.667 23.364 2.667 16S8.636 2.667 16 2.667 29.333 8.636 29.333 16 23.364 29.333 16 29.333zM11.853 17.56l.017-.009 1.16 3.827c.149.415.355.489.604.455.251-.033.383-.168.547-.325l1.584-1.531 3.4 2.517c.621.343 1.068.165 1.223-.576l2.209-10.429c.244-.971-.183-1.36-.936-1.051L8.684 15.451c-.885.355-.88.851-.16 1.071l3.329 1.039z"/>
    </symbol>
    <symbol id="icon-whatsapp" viewBox="0 0 32 32">
      <path d="m2.672 29.333 1.803-6.624A13.268 13.268 0 0 1 2.667 16C2.667 8.636 8.636 2.667 16 2.667S29.333 8.636 29.333 16 23.364 29.333 16 29.333a13.273 13.273 0 0 1-6.707-1.807l-6.621 1.807zm8.516-19.589c-.172.011-.34.056-.495.133a1.703 1.703 0 0 0-.392.304c-.16.151-.251.281-.348.408a3.634 3.634 0 0 0-.753 2.237c.003.653.173 1.289.44 1.884.545 1.203 1.443 2.476 2.628 3.656.285.284.564.569.864.835a12.602 12.602 0 0 0 5.12 2.728l.759.116c.247.013.493-.005.741-.017.388-.02.767-.125 1.111-.308.221-.117.325-.176.511-.293 0 0 .057-.037.167-.12.18-.133.291-.228.44-.384.111-.115.207-.249.28-.403.104-.217.208-.632.251-.977.032-.264.023-.408.019-.497-.005-.143-.124-.291-.253-.353l-.776-.348s-1.16-.505-1.868-.828a.667.667 0 0 0-.236-.055.651.651 0 0 0-.504.169v-.003c-.007 0-.096.076-1.06 1.244-.055.074-.131.131-.219.161s-.182.035-.272.012a1.92 1.92 0 0 1-.255-.088c-.165-.069-.223-.096-.336-.145l-.007-.003a8.013 8.013 0 0 1-2.093-1.333c-.168-.147-.324-.307-.484-.461a8.363 8.363 0 0 1-1.36-1.691l-.079-.127a1.265 1.265 0 0 1-.136-.273c-.051-.196.081-.353.081-.353s.324-.355.475-.547c.125-.16.243-.326.351-.497.157-.253.207-.513.124-.715-.373-.912-.76-1.82-1.157-2.721-.079-.179-.312-.307-.524-.332-.072-.008-.144-.016-.216-.021a4.582 4.582 0 0 0-.537.005v.001z"/>
    </symbol>
    <symbol id="icon-close-btn" viewBox="0 0 32 32">
      <path d="m15.998 14.115 6.6-6.6L24.483 9.4l-6.6 6.6 6.6 6.6-1.885 1.885-6.6-6.6-6.6 6.6L7.513 22.6l6.6-6.6-6.6-6.6 1.885-1.885 6.6 6.6z"/>
    </symbol>
    <symbol id="icon-menu-FAQ" viewBox="0 0 32 32">
      <path d="M16 29.333C8.636 29.333 2.667 23.364 2.667 16S8.636 2.667 16 2.667 29.333 8.636 29.333 16 23.364 29.333 16 29.333zM14.667 20v2.667h2.667V20h-2.667zm2.666-2.193A4.67 4.67 0 0 0 16 8.668a4.664 4.664 0 0 0-4.577 3.75l2.616.524a1.994 1.994 0 0 1 1.477-1.548 1.998 1.998 0 0 1 2.031.673 1.995 1.995 0 0 1-.476 2.958c-.32.202-.691.31-1.07.31a1.334 1.334 0 0 0-1.334 1.334v2h2.667v-.86z"/>
    </symbol>
    <symbol id="icon-menu-home" viewBox="0 0 32 32">
      <path d="M25.697 26.779c0 .324-.128.635-.355.864s-.536.358-.857.358H7.515c-.321 0-.63-.129-.857-.358s-.355-.54-.355-.864V15.786H2.667L15.185 4.319a1.205 1.205 0 0 1 1.632 0l12.518 11.467h-3.636v10.993zM12.364 14.564v7.329h7.273v-7.329h-7.273zm2.424 2.443h2.424v2.443h-2.424v-2.443z"/>
    </symbol>
    <symbol id="icon-menu-support" viewBox="0 0 32 32">
      <path d="M26.667 29.333H5.334A1.334 1.334 0 0 1 4 27.999V10.666h24v17.333a1.334 1.334 0 0 1-1.334 1.334zM28 8H4V4a1.335 1.335 0 0 1 1.334-1.334h21.333A1.335 1.335 0 0 1 28.001 4v4zM9.333 14.667V20h5.333v-5.333H9.333zm0 8v2.667h13.333v-2.667H9.333zm8-6.667v2.667h5.333V16h-5.333z"/>
    </symbol>
    <symbol id="icon-menu-about" viewBox="0 0 32 32">
      <path d="M5.333 17.185h9.481V5.333H5.333v11.852zm0 9.482h9.481v-7.111H5.333v7.111zm11.852 0h9.481V14.815h-9.481v11.852zm0-21.334v7.111h9.481V5.333h-9.481z"/>
    </symbol>
  </defs>
</svg>